<svg width="263" height="47" viewBox="0 0 263 47" fill="none" xmlns="http://www.w3.org/2000/svg">
<g clip-path="url(#clip0_5_32)">
<path d="M1.6751 9.07065C0.752452 9.07065 0 8.31476 0 7.3879V1.68275C0 0.755887 0.752452 0 1.6751 0H53.0748C53.9974 0 54.7499 0.755887 54.7499 1.68275V7.3879C54.7499 8.31476 53.9974 9.07065 53.0748 9.07065H31.8896V45.3262C31.8896 46.2531 31.1372 47.009 30.2145 47.009H24.5353C23.6127 47.009 22.8602 46.2531 22.8602 45.3262V9.07065H1.6751Z" fill="#C146FF"/>
<path d="M67.7745 37.9384H107.108C109.706 37.9384 111.82 35.8057 111.82 33.2051V13.8039C111.82 11.1943 109.697 9.07065 107.108 9.07065H67.7745C66.8518 9.07065 66.0994 8.31476 66.0994 7.3879V1.68275C66.0994 0.755887 66.8518 0 67.7745 0H108.917C115.484 0 120.849 5.3992 120.849 11.9862V35.0138C120.849 41.6098 115.475 47 108.917 47H67.7745C66.8518 47 66.0994 46.2441 66.0994 45.3173V39.6211C66.0994 38.6942 66.8518 37.9384 67.7745 37.9384Z" fill="#C146FF"/>
<path d="M135.11 47H133.874C132.951 47 132.199 46.2441 132.199 45.3172V1.68275C132.199 0.755887 132.951 0 133.874 0H143.96C147.902 0 151.252 2.42064 152.506 6.16408V6.20008L153.312 8.61172L155.722 15.9276C155.722 15.9276 155.74 15.9816 155.749 16.0086L159.762 28.1838L162.315 35.9316C162.342 36.0126 162.368 36.0846 162.404 36.1566C162.861 37.2454 163.891 37.9383 165.092 37.9383H165.656C166.856 37.9383 167.886 37.2454 168.343 36.1566C168.37 36.0846 168.406 36.0036 168.424 35.9316L170.977 28.1838L174.99 16.0086C174.99 16.0086 175.008 15.9546 175.017 15.9276L177.426 8.61172L178.224 6.20008L178.242 6.16408C179.496 2.42064 182.846 0 186.787 0H196.874C197.796 0 198.549 0.755887 198.549 1.68275V45.3172C198.549 46.2441 197.796 47 196.874 47H191.195C190.272 47 189.519 46.2441 189.519 45.3172V9.11564H188.256C187.155 9.25962 186.635 9.74555 186.017 11.4283C185.945 11.6263 185.874 11.8422 185.793 12.0672L183.285 19.6621C183.249 19.806 183.204 19.95 183.151 20.094L176.325 40.7909C176.28 40.9349 176.226 41.0789 176.172 41.2139C175.124 43.9405 172.948 45.9112 170.251 46.658C169.463 46.874 168.63 46.991 167.77 46.991H162.987C162.127 46.991 161.294 46.874 160.505 46.658C157.809 45.9112 155.623 43.9405 154.584 41.2139C154.53 41.0699 154.477 40.9349 154.432 40.7909L147.606 20.094C147.561 19.95 147.517 19.806 147.472 19.6621L144.964 12.0672C144.892 11.8332 144.811 11.6263 144.74 11.4283C144.122 9.74555 143.593 9.25062 142.5 9.11564H141.237V45.3262C141.237 46.2531 140.485 47.009 139.562 47.009H135.119L135.11 47Z" fill="#C146FF"/>
<path d="M209.845 11.9862C209.845 5.3992 215.219 0 221.785 0H260.331C261.253 0 262.006 0.755887 262.006 1.68275V7.3789C262.006 8.30576 261.253 9.06165 260.331 9.06165H223.586C220.988 9.06165 218.874 11.1943 218.874 13.7949V33.1961C218.874 35.8057 220.997 37.9294 223.586 37.9294H260.331C261.253 37.9294 262.006 38.6852 262.006 39.6121V45.3082C262.006 46.2351 261.253 46.991 260.331 46.991H221.785C215.219 46.991 209.854 41.5918 209.854 35.0048V11.9862H209.845Z" fill="#4B3FF3"/>
</g>
<defs>
<clipPath id="clip0_5_32">
<rect width="263" height="47" fill="white"/>
</clipPath>
</defs>
</svg>
