<svg width="104" height="111" viewBox="0 0 104 111" fill="none" xmlns="http://www.w3.org/2000/svg">
<ellipse opacity="0.3" cx="50.5" cy="106.804" rx="50" ry="4" fill="#668091"/>
<path d="M11.9833 23.3514C11.9833 19.4212 11.9838 16.5095 12.172 14.2051C12.3598 11.9077 12.7311 10.2666 13.4438 8.86794C14.7285 6.34657 16.7785 4.29663 19.2998 3.01193C20.6985 2.29925 22.3396 1.92787 24.637 1.74016C26.9414 1.55188 29.853 1.55142 33.7833 1.55142H57.2167C61.147 1.55142 64.0586 1.55188 66.363 1.74016C68.6604 1.92787 70.3015 2.29925 71.7002 3.01193C74.2215 4.29663 76.2715 6.34657 77.5562 8.86794C78.2689 10.2666 78.6402 11.9077 78.8279 14.2051C79.0162 16.5095 79.0167 19.4211 79.0167 23.3514V85.3376C79.0167 89.2679 79.0162 92.1795 78.8279 94.4839C78.6402 96.7814 78.2689 98.4224 77.5562 99.8211C76.2715 102.342 74.2215 104.392 71.7002 105.677C70.3015 106.39 68.6604 106.761 66.363 106.949C64.0586 107.137 61.147 107.138 57.2167 107.138H33.7833C29.853 107.138 26.9414 107.137 24.637 106.949C22.3396 106.761 20.6985 106.39 19.2998 105.677C16.7785 104.392 14.7285 102.342 13.4438 99.8211C12.7311 98.4224 12.3598 96.7814 12.172 94.484C11.9838 92.1795 11.9833 89.2679 11.9833 85.3376V23.3514Z" fill="white" stroke="#394753" stroke-width="1.2"/>
<path d="M16.3833 23.3514C16.3833 15.5107 16.3833 11.5903 17.9092 8.59555C19.2514 5.96128 21.3932 3.81955 24.0274 2.47732C27.0222 0.951416 30.9426 0.951416 38.7833 0.951416H62.2167C70.0574 0.951416 73.9778 0.951416 76.9726 2.47732C79.6068 3.81955 81.7486 5.96128 83.0908 8.59555C84.6167 11.5903 84.6167 15.5107 84.6167 23.3514V85.3376C84.6167 93.1784 84.6167 97.0987 83.0908 100.094C81.7486 102.728 79.6068 104.87 76.9726 106.212C73.9778 107.738 70.0574 107.738 62.2167 107.738H38.7833C30.9426 107.738 27.0222 107.738 24.0274 106.212C21.3932 104.87 19.2514 102.728 17.9092 100.094C16.3833 97.0987 16.3833 93.1784 16.3833 85.3376V23.3514Z" fill="#BBDEFB"/>
<g filter="url(#filter0_d_32_508)">
<rect x="27.3414" y="79.7474" width="46.3172" height="12" rx="6" fill="white"/>
</g>
<g filter="url(#filter1_d_32_508)">
<rect x="27.3414" y="63.7622" width="46.3172" height="12" rx="6" fill="white"/>
</g>
<g filter="url(#filter2_d_32_508)">
<circle cx="50.5" cy="41.91" r="14" fill="#1F319D"/>
</g>
<path d="M50.5009 41.252C51.9761 41.252 53.1719 40.0561 53.1719 38.581C53.1719 37.1059 51.9761 35.91 50.5009 35.91C49.0258 35.91 47.83 37.1059 47.83 38.581C47.83 40.0561 49.0258 41.252 50.5009 41.252Z" stroke="white" stroke-width="1.5" stroke-linecap="round" stroke-linejoin="round"/>
<path d="M55.6061 47.9101C55.6061 45.7271 53.32 43.9575 50.5001 43.9575C47.6801 43.9575 45.394 45.7271 45.394 47.9101" stroke="white" stroke-width="1.5" stroke-linecap="round" stroke-linejoin="round"/>
<path d="M62.2167 5.18142H38.7833C34.7934 5.18142 32.055 5.1847 29.9326 5.35811C27.8599 5.52745 26.7497 5.83772 25.9478 6.24628C24.1095 7.18297 22.6149 8.67759 21.6782 10.5159C21.2696 11.3178 20.9593 12.4281 20.79 14.5007C20.6166 16.6231 20.6133 19.3615 20.6133 23.3514V85.3376C20.6133 89.3275 20.6166 92.066 20.79 94.1884C20.9593 96.261 21.2696 97.3713 21.6782 98.1731C22.6149 100.011 24.1095 101.506 25.9478 102.443C26.7497 102.851 27.8599 103.162 29.9326 103.331C32.055 103.504 34.7934 103.508 38.7833 103.508H62.2167C66.2066 103.508 68.945 103.504 71.0674 103.331C73.1401 103.162 74.2503 102.851 75.0522 102.443C76.8905 101.506 78.3852 100.011 79.3218 98.1731C79.7304 97.3713 80.0407 96.261 80.21 94.1884C80.3834 92.066 80.3867 89.3275 80.3867 85.3376V23.3514C80.3867 19.3615 80.3834 16.6231 80.21 14.5007C80.0407 12.4281 79.7304 11.3178 79.3218 10.5159C78.3852 8.67759 76.8905 7.18297 75.0522 6.24628C74.2503 5.83772 73.1401 5.52745 71.0674 5.35811C68.945 5.1847 66.2066 5.18142 62.2167 5.18142ZM16.9833 23.3514C16.9833 19.4212 16.9838 16.5095 17.172 14.2051C17.3598 11.9077 17.7311 10.2666 18.4438 8.86794C19.7285 6.34657 21.7785 4.29663 24.2998 3.01193C25.6985 2.29925 27.3396 1.92787 29.637 1.74016C31.9414 1.55188 34.853 1.55142 38.7833 1.55142H62.2167C66.147 1.55142 69.0586 1.55188 71.363 1.74016C73.6604 1.92787 75.3015 2.29925 76.7002 3.01193C79.2215 4.29663 81.2715 6.34657 82.5562 8.86794C83.2689 10.2666 83.6402 11.9077 83.8279 14.2051C84.0162 16.5095 84.0167 19.4211 84.0167 23.3514V85.3376C84.0167 89.2679 84.0162 92.1795 83.8279 94.4839C83.6402 96.7814 83.2689 98.4224 82.5562 99.8211C81.2715 102.342 79.2215 104.392 76.7002 105.677C75.3015 106.39 73.6604 106.761 71.363 106.949C69.0586 107.137 66.147 107.138 62.2167 107.138H38.7833C34.853 107.138 31.9414 107.137 29.637 106.949C27.3396 106.761 25.6985 106.39 24.2998 105.677C21.7785 104.392 19.7285 102.342 18.4438 99.8211C17.7311 98.4224 17.3598 96.7814 17.172 94.484C16.9838 92.1795 16.9833 89.2679 16.9833 85.3376V23.3514Z" fill="white" stroke="#394753" stroke-width="1.2"/>
<path fill-rule="evenodd" clip-rule="evenodd" d="M38.5 13.425C38.5 11.2159 40.2909 9.42505 42.5 9.42505L58.5 9.42505C60.7091 9.42505 62.5 11.2159 62.5 13.4251C62.5 15.6342 60.7091 17.4251 58.5 17.4251L42.5 17.425C40.2909 17.425 38.5 15.6342 38.5 13.425Z" fill="#C146FF" stroke="#394753" stroke-width="1.2" stroke-linecap="round"/>
<path opacity="0.2" d="M84.6166 67.2494V86.4121C84.6166 88.4342 84.6166 90.1955 84.5905 91.7474H51.749C44.9841 91.7474 39.5 86.2634 39.5 79.4984C39.5 72.7335 44.9841 67.2494 51.749 67.2494H84.6166Z" fill="#01321D"/>
<rect x="39.5" y="62.2494" width="64" height="24.4981" rx="12.249" fill="#C146FF"/>
<path d="M56.0381 70.3622V78.8823" stroke="white" stroke-width="2.93849" stroke-linecap="round" stroke-linejoin="round"/>
<path d="M59.7274 72.4922L52.3488 76.7522" stroke="white" stroke-width="2.93849" stroke-linecap="round" stroke-linejoin="round"/>
<path d="M52.3488 72.4922L59.7274 76.7522" stroke="white" stroke-width="2.93849" stroke-linecap="round" stroke-linejoin="round"/>
<path d="M71.1305 70.3622V78.8823" stroke="white" stroke-width="2.93849" stroke-linecap="round" stroke-linejoin="round"/>
<path d="M74.8198 72.4922L67.4412 76.7522" stroke="white" stroke-width="2.93849" stroke-linecap="round" stroke-linejoin="round"/>
<path d="M67.4412 72.4922L74.8198 76.7522" stroke="white" stroke-width="2.93849" stroke-linecap="round" stroke-linejoin="round"/>
<path d="M86.2225 70.3622V78.8823" stroke="white" stroke-width="2.93849" stroke-linecap="round" stroke-linejoin="round"/>
<path d="M89.9119 72.4922L82.5333 76.7522" stroke="white" stroke-width="2.93849" stroke-linecap="round" stroke-linejoin="round"/>
<path d="M82.5332 72.4922L89.9118 76.7522" stroke="white" stroke-width="2.93849" stroke-linecap="round" stroke-linejoin="round"/>
<defs>
<filter id="filter0_d_32_508" x="21.3414" y="75.7474" width="58.3173" height="24" filterUnits="userSpaceOnUse" color-interpolation-filters="sRGB">
<feFlood flood-opacity="0" result="BackgroundImageFix"/>
<feColorMatrix in="SourceAlpha" type="matrix" values="0 0 0 0 0 0 0 0 0 0 0 0 0 0 0 0 0 0 127 0" result="hardAlpha"/>
<feOffset dy="2"/>
<feGaussianBlur stdDeviation="3"/>
<feComposite in2="hardAlpha" operator="out"/>
<feColorMatrix type="matrix" values="0 0 0 0 0.00392157 0 0 0 0 0.196078 0 0 0 0 0.113725 0 0 0 0.1 0"/>
<feBlend mode="normal" in2="BackgroundImageFix" result="effect1_dropShadow_32_508"/>
<feBlend mode="normal" in="SourceGraphic" in2="effect1_dropShadow_32_508" result="shape"/>
</filter>
<filter id="filter1_d_32_508" x="21.3414" y="59.7622" width="58.3173" height="24" filterUnits="userSpaceOnUse" color-interpolation-filters="sRGB">
<feFlood flood-opacity="0" result="BackgroundImageFix"/>
<feColorMatrix in="SourceAlpha" type="matrix" values="0 0 0 0 0 0 0 0 0 0 0 0 0 0 0 0 0 0 127 0" result="hardAlpha"/>
<feOffset dy="2"/>
<feGaussianBlur stdDeviation="3"/>
<feComposite in2="hardAlpha" operator="out"/>
<feColorMatrix type="matrix" values="0 0 0 0 0.00392157 0 0 0 0 0.196078 0 0 0 0 0.113725 0 0 0 0.1 0"/>
<feBlend mode="normal" in2="BackgroundImageFix" result="effect1_dropShadow_32_508"/>
<feBlend mode="normal" in="SourceGraphic" in2="effect1_dropShadow_32_508" result="shape"/>
</filter>
<filter id="filter2_d_32_508" x="30.5" y="27.91" width="40" height="42" filterUnits="userSpaceOnUse" color-interpolation-filters="sRGB">
<feFlood flood-opacity="0" result="BackgroundImageFix"/>
<feColorMatrix in="SourceAlpha" type="matrix" values="0 0 0 0 0 0 0 0 0 0 0 0 0 0 0 0 0 0 127 0" result="hardAlpha"/>
<feMorphology radius="2" operator="erode" in="SourceAlpha" result="effect1_dropShadow_32_508"/>
<feOffset dy="8"/>
<feGaussianBlur stdDeviation="4"/>
<feComposite in2="hardAlpha" operator="out"/>
<feColorMatrix type="matrix" values="0 0 0 0 0.00392157 0 0 0 0 0.196078 0 0 0 0 0.113725 0 0 0 0.3 0"/>
<feBlend mode="normal" in2="BackgroundImageFix" result="effect1_dropShadow_32_508"/>
<feBlend mode="normal" in="SourceGraphic" in2="effect1_dropShadow_32_508" result="shape"/>
</filter>
</defs>
</svg>
