<svg width="270" height="51" viewBox="0 0 270 51" fill="none" xmlns="http://www.w3.org/2000/svg">
<g clip-path="url(#clip0_5_42)">
<path d="M2.51304 12.3255C1.57094 12.3255 0.799316 11.5529 0.799316 10.6097V4.79725C0.799316 3.85397 1.57094 3.08138 2.51304 3.08138H55.082C56.0241 3.08138 56.7957 3.85397 56.7957 4.79725V10.6097C56.7957 11.5529 56.0241 12.3255 55.082 12.3255H33.4138V49.2841C33.4138 50.2274 32.6422 51 31.7001 51H25.895C24.9529 51 24.1813 50.2274 24.1813 49.2841V12.3255H2.51304Z" fill="url(#paint0_linear_5_42)"/>
<path d="M70.1197 41.7559H110.352C113.008 41.7559 115.179 39.5818 115.179 36.9227V17.1497C115.179 14.4906 113.008 12.3165 110.352 12.3165H70.1197C69.1776 12.3165 68.406 11.544 68.406 10.6007V4.78827C68.406 3.84499 69.1776 3.0724 70.1197 3.0724H112.2C118.911 3.0724 124.411 8.57037 124.411 15.2901V38.7643C124.411 45.4841 118.92 50.991 112.2 50.991H70.1197C69.1776 50.991 68.406 50.2184 68.406 49.2751V43.4627C68.406 42.5195 69.1776 41.7469 70.1197 41.7469V41.7559Z" fill="url(#paint1_linear_5_42)"/>
<path d="M138.992 51H137.726C136.784 51 136.013 50.2274 136.013 49.2841V4.79725C136.013 3.85397 136.784 3.08138 137.726 3.08138H148.045C152.073 3.08138 155.501 5.55188 156.784 9.36992L156.802 9.41483L157.618 11.8763L160.086 19.3327C160.086 19.3327 160.103 19.3867 160.112 19.4136L164.213 31.829L166.824 39.7256C166.851 39.8064 166.878 39.8783 166.913 39.9591C167.38 41.0731 168.43 41.7738 169.659 41.7738H170.242C171.462 41.7738 172.521 41.0731 172.988 39.9591C173.024 39.8873 173.051 39.8064 173.077 39.7256L175.688 31.829L179.789 19.4136C179.789 19.4136 179.807 19.3597 179.816 19.3327L182.283 11.8763L183.1 9.41483L183.118 9.36992C184.401 5.55188 187.828 3.08138 191.857 3.08138H202.175C203.117 3.08138 203.889 3.85397 203.889 4.79725V49.2841C203.889 50.2274 203.117 51 202.175 51H196.37C195.428 51 194.656 50.2274 194.656 49.2841V12.3704H193.364C192.242 12.5142 191.704 13.0083 191.067 14.7331C190.995 14.9308 190.915 15.1554 190.843 15.3889L188.277 23.1328C188.232 23.2766 188.187 23.4293 188.142 23.573L181.162 44.6665C181.117 44.8103 181.063 44.954 181.009 45.0978C179.941 47.8827 177.707 49.886 174.953 50.6496C174.145 50.8742 173.293 50.991 172.414 50.991H167.524C166.644 50.991 165.792 50.8742 164.984 50.6496C162.23 49.886 159.996 47.8827 158.928 45.0978C158.874 44.954 158.82 44.8103 158.776 44.6665L151.795 23.573C151.75 23.4293 151.705 23.2766 151.66 23.1328L149.094 15.3889C149.014 15.1554 148.942 14.9398 148.87 14.7331C148.233 13.0173 147.704 12.5142 146.573 12.3704H145.281V49.2841C145.281 50.2274 144.51 51 143.567 51H139.027H138.992Z" fill="url(#paint2_linear_5_42)"/>
<path d="M215.436 15.2991C215.436 8.57936 220.927 3.08138 227.647 3.08138H267.072C268.014 3.08138 268.785 3.85397 268.785 4.79725V10.6097C268.785 11.5529 268.014 12.3255 267.072 12.3255H229.486C226.831 12.3255 224.659 14.4996 224.659 17.1587V36.9317C224.659 39.5908 226.831 41.7648 229.486 41.7648H267.072C268.014 41.7648 268.785 42.5374 268.785 43.4807V49.2931C268.785 50.2364 268.014 51.009 267.072 51.009H227.647C220.936 51.009 215.436 45.511 215.436 38.7823V15.3081V15.2991Z" fill="url(#paint3_linear_5_42)"/>
</g>
<defs>
<linearGradient id="paint0_linear_5_42" x1="0.799316" y1="27.0407" x2="56.7957" y2="27.0407" gradientUnits="userSpaceOnUse">
<stop stop-color="#45E6C9"/>
<stop offset="0.51" stop-color="#5673E6"/>
<stop offset="1" stop-color="#4845A6"/>
</linearGradient>
<linearGradient id="paint1_linear_5_42" x1="68.406" y1="27.0407" x2="124.402" y2="27.0407" gradientUnits="userSpaceOnUse">
<stop stop-color="#E63CB6"/>
<stop offset="0.51" stop-color="#8B3BE6"/>
<stop offset="0.55" stop-color="#833AE0"/>
<stop offset="1" stop-color="#3532A6"/>
</linearGradient>
<linearGradient id="paint2_linear_5_42" x1="136.013" y1="1.69282e-06" x2="203.88" y2="1.69282e-06" gradientUnits="userSpaceOnUse">
<stop stop-color="#E63CB6"/>
<stop offset="0.51" stop-color="#8B3BE6"/>
<stop offset="0.55" stop-color="#833AE0"/>
<stop offset="1" stop-color="#3532A6"/>
</linearGradient>
<linearGradient id="paint3_linear_5_42" x1="215.436" y1="27.0407" x2="268.785" y2="27.0407" gradientUnits="userSpaceOnUse">
<stop stop-color="#E63CB6"/>
<stop offset="0.51" stop-color="#8B3BE6"/>
<stop offset="0.55" stop-color="#833AE0"/>
<stop offset="1" stop-color="#3532A6"/>
</linearGradient>
<clipPath id="clip0_5_42">
<rect width="269" height="51" fill="white" transform="translate(0.799316)"/>
</clipPath>
</defs>
</svg>
