<svg width="30" height="28" viewBox="0 0 30 28" fill="none" xmlns="http://www.w3.org/2000/svg">
<g clip-path="url(#clip0_140_916)">
<path d="M28.8938 3.84103C28.6857 3.64197 28.4011 3.51865 28.0873 3.51865H25.489V2.05111C25.489 1.39398 24.9343 0.858429 24.2537 0.858429C23.5713 0.858429 23.0166 1.39398 23.0166 2.05111V3.51859H7.23344V2.05111C7.23344 1.39398 6.67875 0.858429 5.99816 0.858429C5.31575 0.858429 4.76289 1.39398 4.76289 2.05111V3.51859H2.16455C1.53505 3.51859 1.02234 4.01187 1.02234 4.61967V26.0405C1.02234 26.6483 1.53505 27.1416 2.16274 27.1416H23.2282C23.3012 27.1416 23.3724 27.1116 23.4217 27.0641L29.1474 21.5375C29.1876 21.497 29.2277 21.4265 29.2277 21.3508V4.61967C29.2277 4.31665 29.0999 4.04009 28.8938 3.84103ZM23.0585 5.93748C23.1991 6.44662 23.6807 6.82538 24.2537 6.82538C24.8266 6.82538 25.3084 6.44662 25.447 5.93398C25.5528 6.12073 25.613 6.33566 25.613 6.56294C25.613 7.28525 25.0036 7.87369 24.2537 7.87369C23.5019 7.87369 22.8925 7.28525 22.8925 6.56294C22.8925 6.3356 22.9545 6.12243 23.0585 5.93748ZM4.8048 5.93573C4.94346 6.44662 5.42518 6.82538 5.9981 6.82538C6.57102 6.82538 7.05094 6.44662 7.19141 5.93573C7.29721 6.12248 7.35929 6.33566 7.35929 6.56288C7.35929 7.28519 6.74803 7.87363 5.9981 7.87363C5.24818 7.87363 4.63692 7.28519 4.63692 6.56288C4.63697 6.3356 4.699 6.12243 4.8048 5.93573ZM28.6803 21.0865H24.095C23.4673 21.0865 22.9545 21.5798 22.9545 22.1876V26.6131H2.16274C1.83609 26.6131 1.56971 26.3559 1.56971 26.0405V9.90489H28.6803V21.0865ZM28.6803 9.37633H1.57153V4.61967C1.57153 4.30429 1.83609 4.04709 2.16274 4.04709H4.76289V5.16578C4.35235 5.50402 4.0896 6.00261 4.0896 6.56283C4.0896 7.5758 4.94538 8.40208 5.99816 8.40208C7.04918 8.40208 7.90672 7.5758 7.90672 6.56283C7.90672 6.00261 7.64397 5.50052 7.23344 5.16228V4.04715H23.0166V5.16583C22.6079 5.50408 22.3452 6.00266 22.3452 6.56288C22.3452 7.57586 23.2009 8.40213 24.2537 8.40213C25.3047 8.40213 26.1605 7.57586 26.1605 6.56288C26.1605 6.00266 25.8977 5.50408 25.489 5.16758V4.04715H28.0873C28.4139 4.04715 28.6803 4.30434 28.6803 4.61973V9.37633Z" fill="#888888"/>
</g>
<defs>
<clipPath id="clip0_140_916">
<rect width="29" height="28" fill="white" transform="translate(0.625)"/>
</clipPath>
</defs>
</svg>
