<svg width="28" height="28" viewBox="0 0 28 28" fill="none" xmlns="http://www.w3.org/2000/svg">
<path d="M26.4 25.7H24.3V6.8C24.3104 6.64689 24.2691 6.49472 24.1828 6.36783C24.0966 6.24093 23.9702 6.14663 23.824 6.1L18.7 3.958V25.7H17.3V1.2C17.3 1.01435 17.2262 0.836301 17.095 0.705025C16.9637 0.57375 16.7857 0.5 16.6 0.5H4C3.81435 0.5 3.6363 0.57375 3.50503 0.705025C3.37375 0.836301 3.3 1.01435 3.3 1.2V25.7H1.2C1.01435 25.7 0.836301 25.7737 0.705025 25.905C0.57375 26.0363 0.5 26.2143 0.5 26.4C0.5 26.5857 0.57375 26.7637 0.705025 26.895C0.836301 27.0263 1.01435 27.1 1.2 27.1H26.4C26.5857 27.1 26.7637 27.0263 26.895 26.895C27.0263 26.7637 27.1 26.5857 27.1 26.4C27.1 26.2143 27.0263 26.0363 26.895 25.905C26.7637 25.7737 26.5857 25.7 26.4 25.7ZM20.8 8.9H22.2C22.3857 8.9 22.5637 8.97375 22.695 9.10502C22.8263 9.2363 22.9 9.41435 22.9 9.6C22.8964 9.78453 22.8215 9.9605 22.691 10.091C22.5605 10.2215 22.3845 10.2964 22.2 10.3H20.8C20.6155 10.2964 20.4395 10.2215 20.309 10.091C20.1785 9.9605 20.1036 9.78453 20.1 9.6C20.1 9.41435 20.1737 9.2363 20.305 9.10502C20.4363 8.97375 20.6143 8.9 20.8 8.9ZM20.8 13.1H22.2C22.3857 13.1 22.5637 13.1737 22.695 13.305C22.8263 13.4363 22.9 13.6143 22.9 13.8C22.9 13.9857 22.8263 14.1637 22.695 14.295C22.5637 14.4263 22.3857 14.5 22.2 14.5H20.8C20.6143 14.5 20.4363 14.4263 20.305 14.295C20.1737 14.1637 20.1 13.9857 20.1 13.8C20.1 13.6143 20.1737 13.4363 20.305 13.305C20.4363 13.1737 20.6143 13.1 20.8 13.1ZM20.8 17.3H22.2C22.3845 17.3036 22.5605 17.3785 22.691 17.509C22.8215 17.6395 22.8964 17.8155 22.9 18C22.9 18.1857 22.8263 18.3637 22.695 18.495C22.5637 18.6263 22.3857 18.7 22.2 18.7H20.8C20.6143 18.7 20.4363 18.6263 20.305 18.495C20.1737 18.3637 20.1 18.1857 20.1 18C20.1036 17.8155 20.1785 17.6395 20.309 17.509C20.4395 17.3785 20.6155 17.3036 20.8 17.3ZM20.8 21.5H22.2C22.3857 21.5 22.5637 21.5737 22.695 21.705C22.8263 21.8363 22.9 22.0143 22.9 22.2C22.9 22.3857 22.8263 22.5637 22.695 22.695C22.5637 22.8263 22.3857 22.9 22.2 22.9H20.8C20.6143 22.9 20.4363 22.8263 20.305 22.695C20.1737 22.5637 20.1 22.3857 20.1 22.2C20.1 22.0143 20.1737 21.8363 20.305 21.705C20.4363 21.5737 20.6143 21.5 20.8 21.5ZM11.7 4.7H13.1C13.2857 4.7 13.4637 4.77375 13.595 4.90503C13.7263 5.0363 13.8 5.21435 13.8 5.4C13.8 5.58565 13.7263 5.7637 13.595 5.89497C13.4637 6.02625 13.2857 6.1 13.1 6.1H11.7C11.5143 6.1 11.3363 6.02625 11.205 5.89497C11.0737 5.7637 11 5.58565 11 5.4C11 5.21435 11.0737 5.0363 11.205 4.90503C11.3363 4.77375 11.5143 4.7 11.7 4.7ZM11.7 8.9H13.1C13.2857 8.9 13.4637 8.97375 13.595 9.10502C13.7263 9.2363 13.8 9.41435 13.8 9.6C13.8 9.78565 13.7263 9.9637 13.595 10.095C13.4637 10.2263 13.2857 10.3 13.1 10.3H11.7C11.5143 10.3 11.3363 10.2263 11.205 10.095C11.0737 9.9637 11 9.78565 11 9.6C11 9.41435 11.0737 9.2363 11.205 9.10502C11.3363 8.97375 11.5143 8.9 11.7 8.9ZM11.7 13.1H13.1C13.2857 13.1 13.4637 13.1737 13.595 13.305C13.7263 13.4363 13.8 13.6143 13.8 13.8C13.8 13.9857 13.7263 14.1637 13.595 14.295C13.4637 14.4263 13.2857 14.5 13.1 14.5H11.7C11.5143 14.5 11.3363 14.4263 11.205 14.295C11.0737 14.1637 11 13.9857 11 13.8C11 13.6143 11.0737 13.4363 11.205 13.305C11.3363 13.1737 11.5143 13.1 11.7 13.1ZM11.7 17.3H13.1C13.2857 17.3 13.4637 17.3737 13.595 17.505C13.7263 17.6363 13.8 17.8143 13.8 18C13.8 18.1857 13.7263 18.3637 13.595 18.495C13.4637 18.6263 13.2857 18.7 13.1 18.7H11.7C11.5143 18.7 11.3363 18.6263 11.205 18.495C11.0737 18.3637 11 18.1857 11 18C11 17.8143 11.0737 17.6363 11.205 17.505C11.3363 17.3737 11.5143 17.3 11.7 17.3ZM7.416 4.7H8.9C9.08565 4.7 9.2637 4.77375 9.39497 4.90503C9.52625 5.0363 9.6 5.21435 9.6 5.4C9.6 5.58565 9.52625 5.7637 9.39497 5.89497C9.2637 6.02625 9.08565 6.1 8.9 6.1H7.5C7.31435 6.1 7.1363 6.02625 7.00503 5.89497C6.87375 5.7637 6.8 5.58565 6.8 5.4C6.8 5.21435 6.87375 5.0363 7.00503 4.90503C7.1363 4.77375 7.31435 4.7 7.5 4.7H7.416ZM7.416 8.9H8.9C9.08565 8.9 9.2637 8.97375 9.39497 9.10502C9.52625 9.2363 9.6 9.41435 9.6 9.6C9.6 9.78565 9.52625 9.9637 9.39497 10.095C9.2637 10.2263 9.08565 10.3 8.9 10.3H7.5C7.31435 10.3 7.1363 10.2263 7.00503 10.095C6.87375 9.9637 6.8 9.78565 6.8 9.6C6.8 9.41435 6.87375 9.2363 7.00503 9.10502C7.1363 8.97375 7.31435 8.9 7.5 8.9H7.416ZM7.416 13.1H8.9C9.08565 13.1 9.2637 13.1737 9.39497 13.305C9.52625 13.4363 9.6 13.6143 9.6 13.8C9.6 13.9857 9.52625 14.1637 9.39497 14.295C9.2637 14.4263 9.08565 14.5 8.9 14.5H7.5C7.31435 14.5 7.1363 14.4263 7.00503 14.295C6.87375 14.1637 6.8 13.9857 6.8 13.8C6.8 13.6143 6.87375 13.4363 7.00503 13.305C7.1363 13.1737 7.31435 13.1 7.5 13.1H7.416ZM7.416 17.3H8.9C9.08565 17.3 9.2637 17.3737 9.39497 17.505C9.52625 17.6363 9.6 17.8143 9.6 18C9.6 18.1857 9.52625 18.3637 9.39497 18.495C9.2637 18.6263 9.08565 18.7 8.9 18.7H7.5C7.31435 18.7 7.1363 18.6263 7.00503 18.495C6.87375 18.3637 6.8 18.1857 6.8 18C6.8 17.8143 6.87375 17.6363 7.00503 17.505C7.1363 17.3737 7.31435 17.3 7.5 17.3H7.416ZM11 25.7V22.9H9.6V25.7H8.2V22.158C8.21072 21.9797 8.28917 21.8123 8.4193 21.69C8.54943 21.5676 8.7214 21.4997 8.9 21.5H11.7C11.8857 21.5 12.0637 21.5737 12.195 21.705C12.3263 21.8363 12.4 22.0143 12.4 22.2V25.7H11Z" fill="#4779ED"/>
</svg>
