<svg width="25" height="24" viewBox="0 0 25 24" fill="none" xmlns="http://www.w3.org/2000/svg">
<path d="M12.095 3.83999C12.2356 3.69954 12.4263 3.62065 12.625 3.62065C12.8238 3.62065 13.0144 3.69954 13.155 3.83999L21.845 12.53C21.9137 12.6037 21.9965 12.6628 22.0885 12.7038C22.1805 12.7448 22.2798 12.7668 22.3805 12.7686C22.4812 12.7704 22.5812 12.7518 22.6746 12.7141C22.768 12.6764 22.8528 12.6202 22.9241 12.549C22.9953 12.4778 23.0514 12.393 23.0891 12.2996C23.1269 12.2062 23.1454 12.1062 23.1436 12.0055C23.1418 11.9048 23.1198 11.8055 23.0788 11.7135C23.0378 11.6215 22.9787 11.5387 22.905 11.47L14.216 2.77999C14.0071 2.57106 13.759 2.40532 13.4861 2.29225C13.2131 2.17917 12.9205 2.12097 12.625 2.12097C12.3295 2.12097 12.037 2.17917 11.764 2.29225C11.491 2.40532 11.243 2.57106 11.034 2.77999L2.34402 11.47C2.20747 11.6115 2.13196 11.801 2.13376 11.9976C2.13556 12.1943 2.21453 12.3824 2.35365 12.5214C2.49277 12.6603 2.68092 12.7391 2.87757 12.7407C3.07422 12.7424 3.26363 12.6667 3.40502 12.53L12.095 3.83999Z" fill="#072AC8"/>
<path d="M12.625 5.43199L20.784 13.591C20.814 13.621 20.844 13.649 20.875 13.677V19.875C20.875 20.91 20.035 21.75 19 21.75H15.625C15.4261 21.75 15.2353 21.671 15.0947 21.5303C14.954 21.3897 14.875 21.1989 14.875 21V16.5C14.875 16.3011 14.796 16.1103 14.6553 15.9697C14.5147 15.829 14.3239 15.75 14.125 15.75H11.125C10.9261 15.75 10.7353 15.829 10.5947 15.9697C10.454 16.1103 10.375 16.3011 10.375 16.5V21C10.375 21.1989 10.296 21.3897 10.1553 21.5303C10.0147 21.671 9.82391 21.75 9.625 21.75H6.25C5.75272 21.75 5.27581 21.5524 4.92417 21.2008C4.57254 20.8492 4.375 20.3723 4.375 19.875V13.677C4.40611 13.6492 4.43646 13.6205 4.466 13.591L12.625 5.42999V5.43199Z" fill="#072AC8"/>
</svg>
