<svg width="25" height="24" viewBox="0 0 25 24" fill="none" xmlns="http://www.w3.org/2000/svg">
<path d="M20.7832 16.3701L23.4831 12.7976C23.6407 12.5891 23.7255 12.3323 23.7239 12.0683C23.7223 11.8044 23.6343 11.5486 23.4741 11.3422L20.8583 7.97566M23.2826 12.0659L9.43256 12.0843M16.2629 21.0448C14.7378 21.8825 13.0277 22.301 11.2987 22.2595C9.56964 22.2181 7.88042 21.7182 6.39503 20.8083C4.90965 19.8985 3.67859 18.6096 2.82139 17.0669C1.9642 15.5241 1.50999 13.78 1.50289 12.0037C1.49579 10.2275 1.93602 8.47955 2.78085 6.92964C3.62568 5.37972 4.84639 4.08051 6.32444 3.15815C7.8025 2.23579 9.48767 1.72164 11.2163 1.66562C12.945 1.6096 14.6583 2.01361 16.1901 2.83842" stroke="black" stroke-width="1.5" stroke-miterlimit="10" stroke-linecap="square"/>
</svg>
