<svg width="18" height="20" viewBox="0 0 18 20" fill="none" xmlns="http://www.w3.org/2000/svg">
<path d="M2.41688 14.9614H15.5831C16.2741 14.9614 16.7568 14.2774 16.5253 13.6264L15.6658 11.2089C15.3722 10.3834 15.2222 9.51362 15.2222 8.63741V7.18365C15.2222 3.74721 12.4364 0.961426 9 0.961426C5.56356 0.961426 2.77778 3.74721 2.77778 7.18365V8.63741C2.77778 9.51362 2.62776 10.3834 2.33422 11.2089L1.47467 13.6264C1.2432 14.2774 1.72595 14.9614 2.41688 14.9614Z" stroke="black" stroke-width="1.5" stroke-linecap="round" stroke-linejoin="round"/>
<path d="M13 14.9614C13 17.1706 11.2091 18.9614 9 18.9614C6.79086 18.9614 5 17.1706 5 14.9614" stroke="black" stroke-width="1.5"/>
</svg>
