<svg width="27" height="27" viewBox="0 0 27 27" fill="none" xmlns="http://www.w3.org/2000/svg">
<g clip-path="url(#clip0_5_55)">
<path d="M21.6338 17.1675L18.7763 16.8412C18.09 16.7625 17.415 16.9987 16.9313 17.4825L14.8613 19.5525C11.6775 17.9325 9.06755 15.3337 7.44755 12.1387L9.5288 10.0575C10.0125 9.57375 10.2488 8.89875 10.17 8.2125L9.8438 5.3775C9.7088 4.24125 8.75255 3.38625 7.60505 3.38625H5.6588C4.38755 3.38625 3.33005 4.44375 3.4088 5.715C4.00505 15.3225 11.6888 22.995 21.285 23.5912C22.5563 23.67 23.6138 22.6125 23.6138 21.3412V19.395C23.625 18.2587 22.77 17.3025 21.6338 17.1675Z" fill="#808080"/>
</g>
<defs>
<clipPath id="clip0_5_55">
<rect width="27" height="27" fill="white"/>
</clipPath>
</defs>
</svg>
