<svg width="23" height="23" viewBox="0 0 23 23" fill="none" xmlns="http://www.w3.org/2000/svg">
<path d="M20.5272 15.5852L17.3522 15.2227C16.5897 15.1352 15.8397 15.3977 15.3022 15.9352L13.0022 18.2352C9.46474 16.4352 6.56474 13.5477 4.76474 9.9977L7.07724 7.6852C7.61474 7.1477 7.87724 6.39771 7.78974 5.63521L7.42724 2.48521C7.27724 1.22271 6.21474 0.272705 4.93974 0.272705H2.77724C1.36474 0.272705 0.189736 1.44771 0.277236 2.8602C0.939736 13.5352 9.47724 22.0602 20.1397 22.7227C21.5522 22.8102 22.7272 21.6352 22.7272 20.2227V18.0602C22.7397 16.7977 21.7897 15.7352 20.5272 15.5852Z" fill="#4779ED"/>
</svg>
