<svg width="25" height="24" viewBox="0 0 25 24" fill="none" xmlns="http://www.w3.org/2000/svg">
<path d="M16.4375 6C16.4375 6.99456 16.0424 7.94839 15.3391 8.65165C14.6359 9.35491 13.682 9.75 12.6875 9.75C11.6929 9.75 10.7391 9.35491 10.0358 8.65165C9.33256 7.94839 8.93748 6.99456 8.93748 6C8.93748 5.00544 9.33256 4.05161 10.0358 3.34835C10.7391 2.64509 11.6929 2.25 12.6875 2.25C13.682 2.25 14.6359 2.64509 15.3391 3.34835C16.0424 4.05161 16.4375 5.00544 16.4375 6ZM5.18848 20.118C5.22061 18.1504 6.02481 16.2742 7.42765 14.894C8.83049 13.5139 10.7196 12.7405 12.6875 12.7405C14.6554 12.7405 16.5445 13.5139 17.9473 14.894C19.3501 16.2742 20.1543 18.1504 20.1865 20.118C17.8339 21.1968 15.2756 21.7535 12.6875 21.75C10.0115 21.75 7.47148 21.166 5.18848 20.118Z" stroke="#888888" stroke-width="1.5" stroke-linecap="round" stroke-linejoin="round"/>
</svg>
