<svg width="19" height="24" viewBox="0 0 19 24" fill="none" xmlns="http://www.w3.org/2000/svg">
<path d="M0.833344 23.3333C0.833344 18.5468 4.71354 14.6666 9.50001 14.6666C14.2865 14.6666 18.1667 18.5468 18.1667 23.3333H16C16 19.7435 13.0899 16.8333 9.50001 16.8333C5.91016 16.8333 3.00001 19.7435 3.00001 23.3333H0.833344ZM9.50001 13.5833C5.90876 13.5833 3.00001 10.6746 3.00001 7.08331C3.00001 3.49206 5.90876 0.583313 9.50001 0.583313C13.0913 0.583313 16 3.49206 16 7.08331C16 10.6746 13.0913 13.5833 9.50001 13.5833ZM9.50001 11.4166C11.8942 11.4166 13.8333 9.47748 13.8333 7.08331C13.8333 4.68915 11.8942 2.74998 9.50001 2.74998C7.10584 2.74998 5.16668 4.68915 5.16668 7.08331C5.16668 9.47748 7.10584 11.4166 9.50001 11.4166Z" fill="#1E58F1"/>
</svg>
