<svg width="24" height="25" viewBox="0 0 24 25" fill="none" xmlns="http://www.w3.org/2000/svg">
<path d="M21 11.5C21 11.5 18 4.5 12 4.5C6 4.5 3 11.5 3 11.5C3 11.5 6 18.5 12 18.5" stroke="#808080" stroke-width="1.5" stroke-linecap="round" stroke-linejoin="round"/>
<circle cx="12" cy="11.5" r="2" stroke="#808080" stroke-width="1.5"/>
<path d="M15 20V16C15 15.7239 15.2239 15.5 15.5 15.5H20.5C20.7761 15.5 21 15.7239 21 16V20C21 20.2761 20.7761 20.5 20.5 20.5H15.5C15.2239 20.5 15 20.2761 15 20Z" stroke="#808080" stroke-width="1.5" stroke-linecap="round" stroke-linejoin="round"/>
<path d="M16 15.5V14.5C16 13.3954 16.8954 12.5 18 12.5V12.5C19.1046 12.5 20 13.3954 20 14.5V15.5" stroke="#808080" stroke-width="1.5" stroke-linecap="round" stroke-linejoin="round"/>
</svg>
